Coordinates
version=1
nRows=11
nColumns=63
inDegrees=yes

Units are S.I. units (second, meters, Newtons, ...)
If the header above contains a line with 'inDegrees', this indicates whether rotational values are in degrees (yes) or radians (no).

endheader
time	pelvis_tilt	pelvis_list	pelvis_rotation	pelvis_tx	pelvis_ty	pelvis_tz	hip_flexion_r	hip_adduction_r	hip_rotation_r	knee_angle_r	knee_angle_r_beta	ankle_angle_r	subtalar_angle_r	mtp_angle_r	hip_flexion_l	hip_adduction_l	hip_rotation_l	knee_angle_l	knee_angle_l_beta	ankle_angle_l	subtalar_angle_l	mtp_angle_l	L5_S1_Flex_Ext	L5_S1_Lat_Bending	L5_S1_axial_rotation	L4_L5_Flex_Ext	L4_L5_Lat_Bending	L4_L5_axial_rotation	L3_L4_Flex_Ext	L3_L4_Lat_Bending	L3_L4_axial_rotation	L2_L3_Flex_Ext	L2_L3_Lat_Bending	L2_L3_axial_rotation	L1_L2_Flex_Ext	L1_L2_Lat_Bending	L1_L2_axial_rotation	L1_T12_Flex_Ext	L1_T12_Lat_Bending	L1_T12_axial_rotation	Abs_r3	Abs_r2	Abs_r1	Abs_t1	Abs_t2	neck_flexion	neck_bending	neck_rotation	arm_flex_r	arm_add_r	arm_rot_r	elbow_flex_r	pro_sup_r	wrist_flex_r	wrist_dev_r	arm_flex_l	arm_add_l	arm_rot_l	elbow_flex_l	pro_sup_l	wrist_flex_l	wrist_dev_l
3.348837	1.685304	-2.338265	101.707438	0.231645	0.653246	0.812707	-0.704672	3.375094	-10.418511	7.749301	0.135251	20.235654	-3.997706	0.000000	-1.341260	-2.164065	13.809990	0.437240	0.007631	23.248902	-2.171658	0.000000	0.115684	0.421964	-0.917235	0.214837	0.561212	-0.974563	0.190058	1.025964	-0.974563	0.132216	1.025964	-0.802581	0.107424	0.860470	-0.745254	0.066102	0.653623	-0.687927	0.826321	4.773344	-5.101389	0.000000	0.000000	24.207275	0.689583	5.679261	4.477181	-11.433256	50.172380	26.380289	85.040992	0.314717	5.240000	2.986060	-11.464586	48.065291	32.675486	85.504795	-4.342604	2.646608
3.372093	1.828811	-2.568680	101.547601	0.232118	0.652793	0.813442	-0.399357	3.456783	-10.824984	7.646695	0.133460	20.383787	-3.318836	0.000000	-1.027164	-2.259968	13.529490	0.436109	0.007612	23.441846	-1.887170	0.000000	0.127376	0.435742	-0.910039	0.236549	0.579537	-0.966916	0.209265	1.059464	-0.966916	0.145578	1.059464	-0.796284	0.118281	0.888566	-0.739407	0.072782	0.674965	-0.682529	0.909831	4.929203	-5.061363	0.000000	0.000000	24.366558	0.592759	5.800790	4.602198	-11.388477	50.196137	26.233026	85.014705	0.289321	5.323993	3.034966	-11.292295	47.977395	32.476815	85.189179	-4.264205	2.359693
3.395349	1.978424	-2.784274	101.496146	0.232457	0.652384	0.814274	-0.114521	3.548514	-11.370133	7.523826	0.131316	20.564978	-2.573072	0.000000	-0.695327	-2.368348	13.165768	0.455286	0.007946	23.683999	-1.361392	0.000000	0.138633	0.449634	-0.920244	0.257455	0.598013	-0.977759	0.227759	1.093240	-0.977759	0.158443	1.093240	-0.805213	0.128734	0.916894	-0.747698	0.079215	0.696483	-0.690183	0.990239	5.086351	-5.118120	0.000000	0.000000	24.555391	0.501226	5.955112	4.714216	-11.393950	50.147391	26.248939	85.043363	0.249308	5.454281	3.088270	-11.048988	47.828611	32.168746	84.815567	-4.158296	1.992350
3.418605	2.125616	-2.979323	101.533837	0.232709	0.652020	0.815127	0.153503	3.637495	-12.110872	7.423340	0.129562	20.793373	-1.680632	0.000000	-0.371879	-2.489395	12.606356	0.482346	0.008419	23.980986	-0.466332	0.000000	0.149672	0.462275	-0.943990	0.277955	0.614826	-1.002990	0.245896	1.123975	-1.002990	0.171060	1.123975	-0.825992	0.138985	0.942671	-0.766992	0.085522	0.716064	-0.707993	1.069090	5.229347	-5.250192	0.000000	0.000000	24.754935	0.421639	6.107956	4.814244	-11.454393	50.110139	26.403758	85.094229	0.191788	5.556267	3.179817	-10.762242	47.825695	31.720793	84.257276	-4.035730	1.474796
3.441860	2.264703	-3.130693	101.618305	0.232894	0.651726	0.815949	0.365701	3.730755	-12.825402	7.316227	0.127692	21.016175	-0.845612	0.000000	-0.092560	-2.610760	12.041993	0.524603	0.009156	24.267249	0.446163	0.000000	0.156785	0.474647	-0.967957	0.291166	0.631280	-1.028454	0.257582	1.154056	-1.028454	0.179190	1.154056	-0.846962	0.145591	0.967900	-0.786465	0.089587	0.735228	-0.725968	1.119901	5.369300	-5.383486	0.000000	0.000000	24.947057	0.363695	6.300054	4.831636	-11.543002	49.827125	26.670259	85.185030	0.130156	5.635824	3.311833	-10.426353	47.752974	31.169545	83.847771	-3.765409	0.964128
3.465116	2.406099	-3.244569	101.760670	0.232996	0.651482	0.816684	0.529783	3.834841	-13.618795	7.217229	0.125964	21.243503	0.054366	0.000000	0.151914	-2.745030	11.480167	0.594058	0.010368	24.547774	1.398367	0.000000	0.161526	0.487761	-1.001444	0.299970	0.648722	-1.064034	0.265371	1.185941	-1.064034	0.184608	1.185941	-0.876263	0.149993	0.994641	-0.813673	0.092296	0.755541	-0.751083	1.153764	5.517646	-5.569729	0.000000	0.000000	25.126701	0.305917	6.504864	4.779625	-11.654665	49.377084	27.035502	85.303220	0.003346	5.737048	3.446691	-10.060217	47.650376	30.549155	83.454800	-3.471212	0.442772
3.488372	2.543149	-3.315047	101.952496	0.233001	0.651291	0.817276	0.626366	3.959453	-14.259398	7.098896	0.123899	21.390521	0.716014	0.000000	0.351064	-2.882454	11.016331	0.700627	0.012228	24.802159	2.261525	0.000000	0.163222	0.501240	-1.033512	0.303119	0.666649	-1.098106	0.268157	1.218714	-1.098106	0.186546	1.218714	-0.904323	0.151568	1.022128	-0.839728	0.093265	0.776420	-0.775134	1.165877	5.670125	-5.748081	0.000000	0.000000	25.288658	0.236858	6.674454	4.559913	-11.789821	48.421669	27.537433	85.486110	-0.121648	5.896395	3.647587	-9.675552	47.687243	29.831247	83.076073	-3.117989	-0.101554
3.511628	2.673035	-3.353864	102.192462	0.232930	0.651154	0.817678	0.660436	4.100840	-14.732486	6.950636	0.121311	21.450078	1.120025	0.000000	0.515673	-3.019412	10.639031	0.846539	0.014775	25.022960	3.048390	0.000000	0.163320	0.514517	-1.073932	0.303302	0.684307	-1.141052	0.268319	1.250996	-1.141052	0.186659	1.250996	-0.939690	0.151659	1.049202	-0.872569	0.093321	0.796986	-0.805449	1.166581	5.820314	-5.972885	0.000000	0.000000	25.421828	0.194893	6.870330	4.271153	-11.932610	47.288070	28.080505	85.624149	-0.265434	6.045501	3.821280	-9.289175	47.621489	29.093379	82.790388	-2.686601	-0.584697
3.534884	2.798707	-3.359626	102.466958	0.232798	0.651094	0.817880	0.633075	4.260585	-15.050883	6.776210	0.118267	21.423457	1.296907	0.000000	0.649333	-3.160435	10.303325	1.038853	0.018131	25.233515	3.816617	0.000000	0.161095	0.528052	-1.121220	0.299169	0.702310	-1.191296	0.264662	1.283907	-1.191296	0.184115	1.283907	-0.981068	0.149592	1.076804	-0.910991	0.092049	0.817953	-0.840915	1.150683	5.973434	-6.235889	0.000000	0.000000	25.535493	0.170117	7.067059	3.976909	-12.077693	46.171022	28.603169	85.778888	-0.444152	6.166316	3.980469	-8.917680	47.537041	28.341905	82.565267	-2.200382	-1.027697
3.558140	2.917884	-3.344458	102.772946	0.232616	0.651107	0.817868	0.557769	4.433312	-15.206230	6.575720	0.114768	21.317460	1.243588	0.000000	0.766725	-3.300231	9.992387	1.272457	0.022209	25.441320	4.578746	0.000000	0.158635	0.541426	-1.174859	0.294601	0.720096	-1.248288	0.260621	1.316422	-1.248288	0.181304	1.316422	-1.028002	0.147308	1.104075	-0.954573	0.090644	0.838668	-0.881144	1.133113	6.124714	-6.534213	0.000000	0.000000	25.623637	0.160924	7.273684	3.715950	-12.204055	45.223403	29.044775	85.924316	-0.661874	6.257520	4.136456	-8.589497	47.548871	27.608836	82.341604	-1.701145	-1.444790
3.581395	3.026842	-3.315720	103.080907	0.232390	0.651179	0.817633	0.449597	4.600959	-15.377429	6.365085	0.111092	21.235088	1.257983	0.000000	0.863374	-3.431455	9.717481	1.526969	0.026651	25.627447	5.294139	0.000000	0.157398	0.554659	-1.228729	0.292305	0.737697	-1.305525	0.258590	1.348598	-1.305525	0.179891	1.348598	-1.075138	0.146160	1.131061	-0.998343	0.089937	0.859167	-0.921547	1.124281	6.274416	-6.833825	0.000000	0.000000	25.689381	0.163000	7.504502	3.502366	-12.318983	44.523224	29.414052	86.034492	-0.883609	6.418387	4.307774	-8.332631	47.859852	26.960319	81.949204	-1.345044	-1.779081
